<svg width="109" height="110" viewBox="0 0 109 110" fill="none" xmlns="http://www.w3.org/2000/svg">
<g clip-path="url(#clip0_6_27)">
<path d="M62.5 110C92.5995 110 117 85.3757 117 55C117 24.6243 92.5995 0 62.5 0C32.4005 0 8 24.6243 8 55C8 85.3757 32.4005 110 62.5 110Z" fill="#C19696"/>
<path d="M72.3919 54.1028L62.0199 62.2291L57.7723 47.3619L33.1655 40.7103L65.4602 42.3844L72.3919 54.1028Z" fill="#7A7070"/>
<path d="M36.1699 82.476L91.7463 38.9469L96.5627 49.7613L90.2441 47.9978L90.0227 59.2178L36.1699 82.476Z" fill="white" fill-opacity="0.7"/>
<path d="M85.6489 61.1188L69.4794 33.0653L28.4375 30.9375L59.7171 39.3972L68.1987 68.5816L85.6489 61.1188Z" fill="#7A7070"/>
</g>
<defs>
<clipPath id="clip0_6_27">
<rect width="109" height="110" fill="white"/>
</clipPath>
</defs>
</svg>
